<svg width="38" height="38" viewBox="0 0 38 38" fill="none" xmlns="http://www.w3.org/2000/svg">
<g clip-path="url(#clip0_411_1085)">
<path d="M1.35714 36.6426H31.2143" stroke="#1F1717" stroke-width="2" stroke-linecap="round" stroke-linejoin="round"/>
<path d="M17.6429 27.1432L9.5 28.609L10.8571 20.3575L29.1243 2.14468C29.3766 1.89027 29.6768 1.68834 30.0076 1.55054C30.3383 1.41274 30.6931 1.3418 31.0514 1.3418C31.4097 1.3418 31.7645 1.41274 32.0953 1.55054C32.426 1.68834 32.7262 1.89027 32.9786 2.14468L35.8557 5.02182C36.1101 5.27415 36.312 5.57435 36.4498 5.90511C36.5877 6.23587 36.6586 6.59065 36.6586 6.94896C36.6586 7.30728 36.5877 7.66205 36.4498 7.99281C36.312 8.32358 36.1101 8.62378 35.8557 8.87611L17.6429 27.1432Z" fill="#1F1717" stroke="#1F1717" stroke-width="2" stroke-linecap="round" stroke-linejoin="round"/>
</g>
<defs>
<clipPath id="clip0_411_1085">
<rect width="38" height="38" fill="white"/>
</clipPath>
</defs>
</svg>
