<svg width="327" height="201" viewBox="0 0 327 201" fill="none" xmlns="http://www.w3.org/2000/svg">
<g clip-path="url(#clip0_231_373)">
<mask id="mask0_231_373" style="mask-type:luminance" maskUnits="userSpaceOnUse" x="0" y="0" width="327" height="201">
<path d="M327 0H0V201H327V0Z" fill="white"/>
</mask>
<g mask="url(#mask0_231_373)">
<path d="M63.6543 21.3989C53.2937 25.3025 45.2747 31.3709 39.5977 39.6039C33.9915 47.766 31.1885 57.8443 31.1885 69.839C31.1885 74.3814 31.6853 78.0012 32.6787 80.6981C32.9626 81.6209 33.3174 82.437 33.7432 83.1468C34.0271 83.6436 34.1689 84.1403 34.1689 84.6372C26.292 84.6372 20.5439 83.0757 16.9248 79.9529C12.8799 76.5461 10.8574 71.0455 10.8574 63.4513C10.8574 58.696 11.8864 54.0116 13.9443 49.3983C16.0023 44.714 18.9118 40.2072 22.6729 35.8777C26.221 31.7611 30.4434 27.9285 35.3398 24.3798C40.3073 20.7601 45.665 17.6373 51.4131 15.0112C63.4768 9.54613 75.4697 6.8136 87.3916 6.8136C90.656 6.8136 93.5654 6.95554 96.1201 7.23945L98.0361 141.381L143.914 7.87822H159.136L98.5684 170.339H67.167L63.6543 21.3989Z" fill="#FCF5ED"/>
<mask id="mask1_231_373" style="mask-type:alpha" maskUnits="userSpaceOnUse" x="10" y="6" width="150" height="165">
<path d="M63.6543 21.3989C53.2937 25.3025 45.2747 31.3709 39.5977 39.6039C33.9915 47.766 31.1885 57.8443 31.1885 69.839C31.1885 74.3814 31.6853 78.0012 32.6787 80.6981C32.9626 81.6209 33.3174 82.437 33.7432 83.1468C34.0271 83.6436 34.1689 84.1403 34.1689 84.6372C26.292 84.6372 20.5439 83.0757 16.9248 79.9529C12.8799 76.5461 10.8574 71.0455 10.8574 63.4513C10.8574 58.696 11.8864 54.0116 13.9443 49.3983C16.0023 44.714 18.9118 40.2072 22.6729 35.8777C26.221 31.7611 30.4434 27.9285 35.3398 24.3798C40.3073 20.7601 45.665 17.6373 51.4131 15.0112C63.4768 9.54613 75.4697 6.8136 87.3916 6.8136C90.656 6.8136 93.5654 6.95554 96.1201 7.23945L98.0361 141.381L143.914 7.87822H159.136L98.5684 170.339H67.167L63.6543 21.3989Z" fill="#FCF5ED"/>
</mask>
<g mask="url(#mask1_231_373)">
<path d="M21.7894 84.8325C12.1814 124.157 35.2296 94.197 47.9548 74.3013L40.9741 37.4111C35.1548 45.2968 27.8723 59.9357 21.7894 84.8325Z" fill="#F4BF96"/>
</g>
<path d="M144.872 109.922C143.701 109.922 142.584 109.709 141.519 109.283C140.455 108.822 139.532 108.201 138.752 107.42C137.971 106.675 137.35 105.77 136.889 104.705C136.463 103.641 136.25 102.523 136.25 101.352C136.25 100.181 136.463 99.0627 136.889 97.9981C137.35 96.9334 137.971 95.9932 138.752 95.1769C139.532 94.3606 140.455 93.7396 141.519 93.3137C142.584 92.8525 143.701 92.6218 144.872 92.6218C146.043 92.6218 147.161 92.8525 148.225 93.3137C149.289 93.7396 150.23 94.3606 151.046 95.1769C151.862 95.9932 152.483 96.9334 152.909 97.9981C153.37 99.0627 153.601 100.181 153.601 101.352C153.601 102.523 153.37 103.641 152.909 104.705C152.483 105.77 151.862 106.675 151.046 107.42C150.23 108.201 149.289 108.822 148.225 109.283C147.161 109.709 146.043 109.922 144.872 109.922ZM137.474 170.978C133.997 170.978 131.247 169.949 129.225 167.89C126.954 165.619 125.818 162.301 125.818 157.936C125.818 155.878 126.102 153.5 126.67 150.803L134.068 115.831H149.769L141.945 152.879C141.661 153.802 141.519 154.973 141.519 156.392C141.519 157.883 141.856 158.93 142.53 159.533C143.24 160.136 144.375 160.438 145.937 160.438C147.001 160.438 148.03 160.207 149.023 159.746C150.052 159.249 150.993 158.575 151.844 157.723C153.583 155.984 154.896 153.678 155.783 150.803H160.36C158.408 156.304 155.96 160.686 153.015 163.951C150.531 166.613 147.728 168.529 144.606 169.7C142.335 170.552 139.958 170.978 137.474 170.978ZM171.43 170.978C166.072 170.978 161.939 169.629 159.029 166.932C155.942 164.058 154.399 159.64 154.399 153.678C154.399 151.442 154.63 148.958 155.091 146.225C155.517 143.493 156.173 140.76 157.06 138.028C158.054 134.976 159.313 132.084 160.839 129.351C162.4 126.619 164.21 124.206 166.268 122.112C171.023 117.286 176.876 114.872 183.832 114.872C188.267 114.872 191.496 115.937 193.518 118.066C195.079 119.734 195.859 122.147 195.859 125.306C195.859 128.393 195.185 131.303 193.836 134.035C192.489 136.732 190.626 139.128 188.248 141.222C185.871 143.28 183.174 144.93 180.158 146.172C177.142 147.379 174.02 148.088 170.791 148.301C170.614 150.147 170.525 151.602 170.525 152.666C170.525 156.215 171.2 158.664 172.547 160.012C173.719 161.219 175.671 161.822 178.402 161.822C182.34 161.822 185.942 160.757 189.207 158.628C190.59 157.741 191.922 156.694 193.199 155.487C194.476 154.246 195.965 152.684 197.668 150.803H201.395C197.953 156.623 193.996 161.254 189.525 164.697C184.026 168.884 177.994 170.978 171.43 170.978ZM171.643 143.085C173.666 142.943 175.635 142.357 177.551 141.328C179.467 140.299 181.17 138.95 182.66 137.283C184.15 135.579 185.32 133.681 186.172 131.587C187.024 129.458 187.449 127.293 187.449 125.093C187.449 123.638 187.238 122.538 186.812 121.792C186.421 121.012 185.729 120.621 184.736 120.621C183.423 120.621 182.093 121.26 180.744 122.538C179.431 123.815 178.154 125.572 176.912 127.807C175.776 129.901 174.747 132.279 173.824 134.941C172.903 137.602 172.176 140.317 171.643 143.085ZM216.936 197.593C215.232 197.593 213.637 197.363 212.145 196.902C210.69 196.476 209.432 195.818 208.367 194.933C207.231 194.045 206.344 192.926 205.705 191.579C205.066 190.265 204.748 188.739 204.748 187C204.748 182.884 206.681 179.353 210.549 176.406C213.458 174.243 217.45 172.363 222.524 170.765L223.855 165.016C220.129 168.99 215.766 170.978 210.762 170.978C206.61 170.978 203.258 169.683 200.703 167.092C197.723 164.04 196.232 159.498 196.232 153.465C196.232 150.91 196.498 148.213 197.031 145.374C197.527 142.535 198.273 139.731 199.266 136.963C201.536 130.717 204.641 125.678 208.58 121.846C213.121 117.481 218.354 115.298 224.281 115.298C227.226 115.298 229.425 115.813 230.879 116.842C232.371 117.836 233.115 119.166 233.115 120.834V121.473L234.285 115.831H249.986L239.183 166.4C242.624 165.264 245.374 163.561 247.432 161.29C249.668 158.841 251.495 155.346 252.914 150.803H257.492C255.54 157.262 252.63 162.248 248.762 165.761C245.924 168.316 242.411 170.126 238.225 171.191L236.574 179.069C235.191 186.024 232.424 191.064 228.272 194.186C225.255 196.457 221.478 197.593 216.936 197.593ZM217.84 160.438C219.402 160.438 221.052 159.711 222.789 158.255C224.671 156.623 225.93 154.512 226.568 151.921L232.104 126.104C232.104 125.749 232.015 125.341 231.838 124.88C231.697 124.418 231.484 123.993 231.199 123.602C230.348 122.573 229.159 122.058 227.633 122.058C226.178 122.058 224.76 122.538 223.375 123.496C222.028 124.454 220.751 125.785 219.543 127.488C217.414 130.575 215.658 134.603 214.274 139.572C213.637 141.772 213.156 143.954 212.838 146.119C212.518 148.248 212.359 150.182 212.359 151.921C212.359 155.541 213.032 157.989 214.381 159.267C214.842 159.764 215.357 160.083 215.924 160.225C216.493 160.367 217.131 160.438 217.84 160.438ZM214.434 189.076C215.57 189.076 216.74 188.277 217.947 186.681C219.153 185.119 220.093 182.689 220.768 179.387L221.406 176.248C218.106 177.49 215.641 178.75 214.008 180.028C211.843 181.66 210.762 183.487 210.762 185.509C210.762 186.468 211.063 187.267 211.666 187.904C212.341 188.686 213.264 189.076 214.434 189.076ZM268.828 170.765C263.434 170.765 259.265 169.452 256.32 166.826C253.02 163.916 251.371 159.498 251.371 153.571C251.371 151.336 251.601 148.869 252.063 146.172C252.524 143.44 253.234 140.689 254.191 137.921C256.392 131.321 259.531 126.051 263.611 122.112C268.544 117.286 274.416 114.872 281.229 114.872C290.56 114.872 295.227 120.675 295.227 132.279V132.385C295.439 132.456 295.617 132.492 295.758 132.492H296.397C298.81 132.492 301.666 131.818 304.965 130.469C307.876 129.262 310.624 127.754 313.215 125.944L314.174 128.925C312.045 131.161 309.294 133.06 305.924 134.621C302.589 136.182 298.898 137.3 294.854 137.975C294.428 142.907 293.469 147.414 291.98 151.495C290.488 155.541 288.574 159.019 286.231 161.929C283.925 164.768 281.281 166.95 278.301 168.476C275.32 170.002 272.163 170.765 268.828 170.765ZM273.191 160.97C274.469 160.97 275.765 160.403 277.078 159.267C278.425 158.096 279.686 156.481 280.856 154.423C282.027 152.365 283.039 149.951 283.891 147.183C284.742 144.415 285.379 141.452 285.805 138.294C284.742 138.01 283.979 137.478 283.518 136.697C283.092 135.916 282.879 134.923 282.879 133.716C282.879 132.226 283.18 130.984 283.783 129.99C284.386 128.996 285.221 128.269 286.285 127.807C286.142 125.501 285.771 123.851 285.168 122.857C284.848 122.36 284.439 122.005 283.943 121.792C283.482 121.579 282.879 121.473 282.133 121.473C279.686 121.473 277.289 123.318 274.949 127.009C272.784 130.345 271.01 134.461 269.625 139.359C268.278 144.149 267.604 148.408 267.604 152.134C267.604 153.944 267.692 155.417 267.869 156.552C268.082 157.688 268.419 158.575 268.881 159.214C269.307 159.853 269.857 160.314 270.531 160.598C271.206 160.846 272.091 160.97 273.191 160.97Z" fill="white"/>
</g>
</g>
<defs>
<clipPath id="clip0_231_373">
<rect width="327" height="201" fill="white"/>
</clipPath>
</defs>
</svg>
