<svg width="41" height="42" viewBox="0 0 41 42" fill="none" xmlns="http://www.w3.org/2000/svg">
<path d="M2 20.9992C2 24.6723 3.0892 28.2629 5.12985 31.3169C7.1705 34.371 10.071 36.7513 13.4644 38.1569C16.8579 39.5626 20.592 39.9303 24.1945 39.2138C27.797 38.4972 31.1061 36.7284 33.7034 34.1312C36.3007 31.5339 38.0694 28.2248 38.786 24.6223C39.5026 21.0198 39.1348 17.2857 37.7292 13.8922C36.3236 10.4987 33.9432 7.59825 30.8892 5.5576C27.8351 3.51694 24.2445 2.42775 20.5714 2.42775C15.2514 2.42186 10.1341 4.46875 6.28571 8.14203" stroke="#FCF5ED" stroke-width="3" stroke-linecap="round" stroke-linejoin="round"/>
<path d="M7.71434 2.42773L6.28577 8.14202L12.0001 9.57059" stroke="#FCF5ED" stroke-width="3" stroke-linecap="round" stroke-linejoin="round"/>
<path d="M20.5714 11V22.4286L13.1428 26.1429" stroke="#FCF5ED" stroke-width="3" stroke-linecap="round" stroke-linejoin="round"/>
</svg>
