<svg width="41" height="42" viewBox="0 0 41 42" fill="none" xmlns="http://www.w3.org/2000/svg">
<path fill-rule="evenodd" clip-rule="evenodd" d="M18.5 3V11.5L18.5 11.5544V11.5544V11.5544V11.5544C18.4999 11.9785 18.4998 12.3906 18.5455 12.7305C18.597 13.1137 18.7226 13.551 19.0858 13.9142C19.449 14.2774 19.8863 14.403 20.2695 14.4545C20.6094 14.5002 21.0215 14.5001 21.4456 14.5H21.4456H21.4456H21.4456L21.5 14.5H30V24C30 28.2426 30 30.364 28.682 31.682C27.364 33 25.2426 33 21 33H15C10.7574 33 8.63604 33 7.31802 31.682C6 30.364 6 28.2426 6 24V12C6 7.75736 6 5.63604 7.31802 4.31802C8.63604 3 10.7574 3 15 3H18.5ZM20.5 3.00065V11.5C20.5 11.9997 20.5021 12.2738 20.5277 12.464L20.5287 12.4713L20.536 12.4723C20.7262 12.4979 21.0003 12.5 21.5 12.5H29.9994C29.9954 11.5868 29.9677 11.0679 29.7716 10.5946C29.5433 10.0433 29.1097 9.60973 28.2426 8.74264L24.2574 4.75736C23.3903 3.89027 22.9567 3.45672 22.4054 3.22836C21.9321 3.03231 21.4132 3.00457 20.5 3.00065ZM12.5 19.5C12.5 18.9477 12.9477 18.5 13.5 18.5L22.5 18.5C23.0523 18.5 23.5 18.9477 23.5 19.5C23.5 20.0523 23.0523 20.5 22.5 20.5H13.5C12.9477 20.5 12.5 20.0523 12.5 19.5ZM13.5 24.5C12.9477 24.5 12.5 24.9477 12.5 25.5C12.5 26.0523 12.9477 26.5 13.5 26.5H19.5C20.0523 26.5 20.5 26.0523 20.5 25.5C20.5 24.9477 20.0523 24.5 19.5 24.5H13.5Z" fill="#222222"/>
<rect x="23" y="23" width="12" height="12" fill="#FCF5ED"/>
<mask id="path-3-outside-1_230_589" maskUnits="userSpaceOnUse" x="19" y="20" width="20" height="20" fill="black">
<rect fill="white" x="19" y="20" width="20" height="20"/>
<path fill-rule="evenodd" clip-rule="evenodd" d="M29 39C33.9706 39 38 34.9706 38 30C38 25.0294 33.9706 21 29 21C24.0294 21 20 25.0294 20 30C20 34.9706 24.0294 39 29 39ZM33.7682 27.6402C34.1218 27.2159 34.0645 26.5853 33.6402 26.2318C33.2159 25.8782 32.5853 25.9355 32.2318 26.3598L28.6338 30.6774C28.2871 31.0934 28.0922 31.3238 27.9366 31.4653L27.9306 31.4707L27.9242 31.4659C27.7564 31.339 27.5415 31.1272 27.1585 30.7443L25.7071 29.2929C25.3166 28.9024 24.6834 28.9024 24.2929 29.2929C23.9024 29.6834 23.9024 30.3166 24.2929 30.7071L25.7443 32.1585L25.7851 32.1993C26.1116 32.5259 26.4257 32.8402 26.7179 33.0611C27.0453 33.3087 27.474 33.5415 28.0234 33.5165C28.5728 33.4916 28.9787 33.221 29.2823 32.9448C29.5534 32.6983 29.8377 32.3569 30.1333 32.0021L30.1703 31.9577L33.7682 27.6402Z"/>
</mask>
<path fill-rule="evenodd" clip-rule="evenodd" d="M29 39C33.9706 39 38 34.9706 38 30C38 25.0294 33.9706 21 29 21C24.0294 21 20 25.0294 20 30C20 34.9706 24.0294 39 29 39ZM33.7682 27.6402C34.1218 27.2159 34.0645 26.5853 33.6402 26.2318C33.2159 25.8782 32.5853 25.9355 32.2318 26.3598L28.6338 30.6774C28.2871 31.0934 28.0922 31.3238 27.9366 31.4653L27.9306 31.4707L27.9242 31.4659C27.7564 31.339 27.5415 31.1272 27.1585 30.7443L25.7071 29.2929C25.3166 28.9024 24.6834 28.9024 24.2929 29.2929C23.9024 29.6834 23.9024 30.3166 24.2929 30.7071L25.7443 32.1585L25.7851 32.1993C26.1116 32.5259 26.4257 32.8402 26.7179 33.0611C27.0453 33.3087 27.474 33.5415 28.0234 33.5165C28.5728 33.4916 28.9787 33.221 29.2823 32.9448C29.5534 32.6983 29.8377 32.3569 30.1333 32.0021L30.1703 31.9577L33.7682 27.6402Z" fill="#1F1717"/>
<path fill-rule="evenodd" clip-rule="evenodd" d="M29 39C33.9706 39 38 34.9706 38 30C38 25.0294 33.9706 21 29 21C24.0294 21 20 25.0294 20 30C20 34.9706 24.0294 39 29 39ZM33.7682 27.6402C34.1218 27.2159 34.0645 26.5853 33.6402 26.2318C33.2159 25.8782 32.5853 25.9355 32.2318 26.3598L28.6338 30.6774C28.2871 31.0934 28.0922 31.3238 27.9366 31.4653L27.9306 31.4707L27.9242 31.4659C27.7564 31.339 27.5415 31.1272 27.1585 30.7443L25.7071 29.2929C25.3166 28.9024 24.6834 28.9024 24.2929 29.2929C23.9024 29.6834 23.9024 30.3166 24.2929 30.7071L25.7443 32.1585L25.7851 32.1993C26.1116 32.5259 26.4257 32.8402 26.7179 33.0611C27.0453 33.3087 27.474 33.5415 28.0234 33.5165C28.5728 33.4916 28.9787 33.221 29.2823 32.9448C29.5534 32.6983 29.8377 32.3569 30.1333 32.0021L30.1703 31.9577L33.7682 27.6402Z" fill="black" fill-opacity="0.2"/>
<path d="M33.6402 26.2318L34.2804 25.4636L34.2804 25.4636L33.6402 26.2318ZM33.7682 27.6402L33 27L33 27L33.7682 27.6402ZM32.2318 26.3598L33 27L33 27L32.2318 26.3598ZM28.6338 30.6774L27.8656 30.0372L27.8656 30.0372L28.6338 30.6774ZM27.9366 31.4653L28.6074 32.2069L28.6095 32.2051L27.9366 31.4653ZM27.9306 31.4707L27.3296 32.27L27.9894 32.766L28.6015 32.2123L27.9306 31.4707ZM27.9242 31.4659L27.3211 32.2635L27.3232 32.2651L27.9242 31.4659ZM27.1585 30.7443L27.8656 30.0372L27.8656 30.0372L27.1585 30.7443ZM25.7071 29.2929L25 30L25 30L25.7071 29.2929ZM24.2929 29.2929L25 30L25 30L24.2929 29.2929ZM24.2929 30.7071L23.5858 31.4142L23.5858 31.4142L24.2929 30.7071ZM25.7443 32.1585L26.4515 31.4515L26.4514 31.4514L25.7443 32.1585ZM25.7851 32.1993L26.4923 31.4923L26.4923 31.4923L25.7851 32.1993ZM26.7179 33.0611L26.1148 33.8588L26.1148 33.8588L26.7179 33.0611ZM28.0234 33.5165L28.0687 34.5155L28.0687 34.5155L28.0234 33.5165ZM29.2823 32.9448L29.9552 33.6846L29.9552 33.6846L29.2823 32.9448ZM30.1333 32.0021L29.365 31.362L29.365 31.362L30.1333 32.0021ZM30.1703 31.9577L29.402 31.3175L29.402 31.3176L30.1703 31.9577ZM37 30C37 34.4183 33.4183 38 29 38V40C34.5228 40 39 35.5228 39 30H37ZM29 22C33.4183 22 37 25.5817 37 30H39C39 24.4772 34.5228 20 29 20V22ZM21 30C21 25.5817 24.5817 22 29 22V20C23.4772 20 19 24.4772 19 30H21ZM29 38C24.5817 38 21 34.4183 21 30H19C19 35.5228 23.4772 40 29 40V38ZM33 27L33 27L34.5364 28.2804C35.2436 27.4318 35.1289 26.1707 34.2804 25.4636L33 27ZM33 27L33 27L34.2804 25.4636C33.4318 24.7564 32.1707 24.8711 31.4636 25.7196L33 27ZM29.402 31.3175L33 27L31.4636 25.7196L27.8656 30.0372L29.402 31.3175ZM28.6095 32.2051C28.8288 32.0055 29.0758 31.709 29.402 31.3175L27.8656 30.0372C27.4984 30.4779 27.3556 30.642 27.2637 30.7256L28.6095 32.2051ZM28.6015 32.2123L28.6074 32.2069L27.2657 30.7237L27.2598 30.7291L28.6015 32.2123ZM27.3232 32.2651L27.3296 32.27L28.5316 30.6714L28.5252 30.6666L27.3232 32.2651ZM26.4514 31.4514C26.8117 31.8117 27.0845 32.0846 27.3211 32.2635L28.5274 30.6682C28.4283 30.5933 28.2712 30.4428 27.8656 30.0372L26.4514 31.4514ZM25 30L26.4514 31.4514L27.8656 30.0372L26.4142 28.5858L25 30ZM25 30L25 30L26.4142 28.5858C25.6332 27.8047 24.3668 27.8047 23.5858 28.5858L25 30ZM25 30L25 30L23.5858 28.5858C22.8047 29.3668 22.8047 30.6332 23.5858 31.4142L25 30ZM26.4514 31.4514L25 30L23.5858 31.4142L25.0372 32.8656L26.4514 31.4514ZM26.4923 31.4923L26.4515 31.4515L25.0371 32.8655L25.0779 32.9063L26.4923 31.4923ZM27.3211 32.2635C27.0957 32.0931 26.8344 31.8346 26.4923 31.4923L25.0779 32.9063C25.3888 33.2173 25.7557 33.5872 26.1148 33.8588L27.3211 32.2635ZM27.9781 32.5176C27.7587 32.5275 27.5582 32.4428 27.3211 32.2635L26.1148 33.8588C26.5324 34.1745 27.1893 34.5554 28.0687 34.5155L27.9781 32.5176ZM28.6095 32.2051C28.3895 32.4051 28.1975 32.5076 27.9781 32.5176L28.0687 34.5155C28.9482 34.4756 29.5679 34.0368 29.9552 33.6846L28.6095 32.2051ZM29.365 31.362C29.0553 31.7338 28.8185 32.015 28.6095 32.2051L29.9552 33.6846C30.2883 33.3816 30.6202 32.98 30.9017 32.6421L29.365 31.362ZM29.402 31.3176L29.365 31.362L30.9016 32.6422L30.9386 32.5978L29.402 31.3176ZM33 27L29.402 31.3175L30.9385 32.5979L34.5364 28.2804L33 27Z" fill="#FCF5ED" mask="url(#path-3-outside-1_230_589)"/>
</svg>
