<svg width="47" height="47" viewBox="0 0 47 47" fill="none" xmlns="http://www.w3.org/2000/svg">
<path d="M7.83337 15.6668L7.12627 16.3739L6.41916 15.6668L7.12627 14.9597L7.83337 15.6668ZM17.625 38.2085C17.0728 38.2085 16.625 37.7608 16.625 37.2085C16.625 36.6562 17.0728 36.2085 17.625 36.2085L17.625 38.2085ZM16.9179 26.1656L7.12627 16.3739L8.54048 14.9597L18.3321 24.7514L16.9179 26.1656ZM7.12627 14.9597L16.9179 5.16805L18.3321 6.58227L8.54048 16.3739L7.12627 14.9597ZM7.83337 14.6668L28.3959 14.6668L28.3959 16.6668L7.83337 16.6668L7.83337 14.6668ZM28.3959 38.2085L17.625 38.2085L17.625 36.2085L28.3959 36.2085L28.3959 38.2085ZM40.1667 26.4377C40.1667 32.9385 34.8967 38.2085 28.3959 38.2085L28.3959 36.2085C33.7922 36.2085 38.1667 31.8339 38.1667 26.4377L40.1667 26.4377ZM28.3959 14.6668C34.8967 14.6668 40.1667 19.9368 40.1667 26.4377L38.1667 26.4377C38.1667 21.0414 33.7921 16.6668 28.3959 16.6668L28.3959 14.6668Z" fill="#33363F"/>
</svg>
