<svg width="124" height="133" viewBox="0 0 124 133" fill="none" xmlns="http://www.w3.org/2000/svg">
<path d="M54.375 19.5625C48.2917 21.8542 43.5833 25.4167 40.25 30.25C36.9583 35.0417 35.3125 40.9583 35.3125 48C35.3125 50.6667 35.6042 52.7917 36.1875 54.375C36.3542 54.9167 36.5625 55.3958 36.8125 55.8125C36.9792 56.1042 37.0625 56.3958 37.0625 56.6875C32.4375 56.6875 29.0625 55.7708 26.9375 53.9375C24.5625 51.9375 23.375 48.7083 23.375 44.25C23.375 41.4583 23.9792 38.7083 25.1875 36C26.3958 33.25 28.1042 30.6042 30.3125 28.0625C32.3958 25.6458 34.875 23.3958 37.75 21.3125C40.6667 19.1875 43.8125 17.3542 47.1875 15.8125C54.2708 12.6042 61.3125 11 68.3125 11C70.2292 11 71.9375 11.0833 73.4375 11.25L74.5625 90L101.5 11.625H110.438L74.875 107H56.4375L54.375 19.5625Z" fill="#FCF5ED"/>
<mask id="mask0_77_277" style="mask-type:alpha" maskUnits="userSpaceOnUse" x="23" y="11" width="88" height="96">
<path d="M54.375 19.5625C48.2917 21.8542 43.5833 25.4167 40.25 30.25C36.9583 35.0417 35.3125 40.9583 35.3125 48C35.3125 50.6667 35.6042 52.7917 36.1875 54.375C36.3542 54.9167 36.5625 55.3958 36.8125 55.8125C36.9792 56.1042 37.0625 56.3958 37.0625 56.6875C32.4375 56.6875 29.0625 55.7708 26.9375 53.9375C24.5625 51.9375 23.375 48.7083 23.375 44.25C23.375 41.4583 23.9792 38.7083 25.1875 36C26.3958 33.25 28.1042 30.6042 30.3125 28.0625C32.3958 25.6458 34.875 23.3958 37.75 21.3125C40.6667 19.1875 43.8125 17.3542 47.1875 15.8125C54.2708 12.6042 61.3125 11 68.3125 11C70.2292 11 71.9375 11.0833 73.4375 11.25L74.5625 90L101.5 11.625H110.438L74.875 107H56.4375L54.375 19.5625Z" fill="#FCF5ED"/>
</mask>
<g mask="url(#mask0_77_277)">
<rect x="73.0635" y="0.435059" width="37.627" height="106.769" transform="rotate(-0.875631 73.0635 0.435059)" fill="#1F1717"/>
<path d="M29.7937 56.8022C24.1523 79.8885 37.6852 62.2998 45.1569 50.6197L41.0581 28.9628C37.6413 33.5922 33.3653 42.1862 29.7937 56.8022Z" fill="#F4BF96"/>
</g>
</svg>
